<svg height="512" viewBox="0 0 53 60" width="512" xmlns="http://www.w3.org/2000/svg"><g id="019---Astronaut-Sitting-On-Planet" fill="none"><g id="Icons" transform="translate(1 1)"><path id="Shape" d="m35 53.36c-2.4700619 2.9375797-6.1119562 4.6335491-9.95 4.6335491s-7.4799381-1.6959694-9.95-4.6335491c6.6061261.8496459 13.2938739.8496459 19.9 0z" fill="#ff9801"/><path id="Shape" d="m31.62 53.71c-2.1026341 2.3450338-4.9911051 3.8390705-8.12 4.2 4.3569239.5319027 8.6864444-1.1810815 11.5-4.55-1.13.15-2.25.26-3.38.35z" fill="#f57c00"/><path id="Shape" d="m50 45c0 4.52-6.64 7.23-15 8.36-6.6061261.8496459-13.2938739.8496459-19.9 0-8.46-1.13-15.1-3.84-15.1-8.36s6.64-7.23 15.05-8.36c-.9417482 1.1209281-1.6887816 2.3918989-2.21 3.76-14.54 2.69-7.13 7.83 7.8 8.49 8.38.49 17-.78 17-1 8.72-1.74 10.71-5.19.33-7.34v-3.41c6.94 1.33 12.03 3.86 12.03 7.86z" fill="#ffeb3a"/><path id="Shape" d="m38 37.14v.69c5.33 1.46 9 3.81 9 7.17 0 4.52-6.64 7.23-15 8.36-2.8185244.3779915-5.6566528.5916858-8.5.64 3.844087.0826723 7.6888244-.1312957 11.5-.64 8.41-1.13 15-3.84 15-8.36 0-4-5.09-6.53-12-7.86z" fill="#fdd834"/><path id="Shape" d="m35.6 16.36c-.2610283.4865419-.565607.9484304-.91 1.38-3.0408082 3.8914956-8.2931201 5.295377-12.87 3.44l-.13-.06c-3.8725363-1.6423587-6.4693918-5.3493797-6.69-9.55-.0099793-.189869-.0099793-.380131 0-.57.0127489-4.99738191 3.3925791-9.3581874 8.2287958-10.61715396 4.8362166-1.25896655 9.9133595.90031511 12.3612042 5.25715396-3.99-2.5-10.21-2.13-13.59 1.06-1.2688994 1.06782854-2.0013815 2.64157805-2.0013815 4.3 0 1.6584219.7324821 3.2321715 2.0013815 4.3 3.3 3.14 9.5 3.61 13.6 1.06z" fill="#f5f5f5"/><path id="Shape" d="m31.6 4.18c1.4165477.21819911 2.7759593.71438435 4 1.46-1.9244151-3.49742147-5.6081504-5.66161598-9.6-5.64-.4853764.00107176-.9700167.03783759-1.45.11 2.7909086.3851789 5.3208198 1.84570925 7.05 4.07z" fill="#cfd8dc"/><path id="Shape" d="m31.62 17.82c-1.2050193 1.5294235-2.801436 2.7042756-4.62 3.4-.8243189.3222988-1.6834797.5471573-2.56.67 1.8800988.2600839 3.7955068.0292703 5.56-.67 1.8420776-.7125083 3.4537464-1.9160721 4.66-3.48.344393-.4315696.6489717-.8934581.91-1.38-1.2103537.7365103-2.5515945 1.23226-3.95 1.46z" fill="#cfd8dc"/><path id="Shape" d="m36.1 15.36c-.15.34-.31.67-.49 1-4.11 2.55-10.31 2.08-13.61-1.06-1.2688994-1.0678285-2.0013815-2.6415781-2.0013815-4.3 0-1.65842195.7324821-3.23217146 2.0013815-4.3 3.38-3.19 9.6-3.56 13.59-1.06 1.6937069 2.97816601 1.8827413 6.5809401.51 9.72z" fill="#02a9f4"/><path id="Shape" d="m35.59 5.64c-2.2875113-1.34528017-4.9590598-1.88733348-7.59-1.54 1.6249571.16804941 3.1925095.69398202 4.59 1.54 1.6937069 2.97816601 1.8827413 6.5809401.51 9.72-.15.34-.31.67-.49 1-1.4055379.8460369-2.9788356 1.3750199-4.61 1.55 2.6350674.3388893 5.3080987-.2062684 7.6-1.55.18-.32.34-.65.49-1 1.3757955-3.1374994 1.1904699-6.74023027-.5-9.72z" fill="#0377bc"/><path id="Shape" d="m30.48 30.67c-.544419.8387125-1.4801402 1.3405307-2.48 1.33-.93 0-.88-.09-7.38-3.33-3.5331262-1.767844-5.500256-5.6331525-4.85-9.53.29-1.78.28-2.06.67-2.71 1.188993 2.0962265 3.0334909 3.743978 5.25 4.69.1613012.9434956.7631448 1.753384 1.62 2.18l6 3c.5037009.2514648.9264792.6395891 1.22 1.12.6049118 1.000298.5736901 2.2608748-.08 3.23z" fill="#cfd8dc"/><path id="Shape" d="m37.09 28.17c-1 3.9-4.86 3.24-5.81 1.15-.1084721-.2321458-.1858075-.4776017-.23-.73-.27-1.61 1.07-2.75-1-7.34 1.8420776-.7125083 3.4537464-1.9160721 4.66-3.48 1.39 1.19 2 3.65 2.32 5.38.3904522 1.6483723.410943 3.3627664.06 5.02z" fill="#cfd8dc"/><g fill="#f5f5f5"><path id="Shape" d="m31 32.5v9.9c.0229769 1.6799759-1.1317218 3.1473186-2.77 3.52-1.0331243.2241586-2.1121714-.032052-2.9342528-.6967136-.8220815-.6646616-1.2985817-1.6661275-1.2957472-2.7232864v-6.5c.0137136-.4706972-.3028167-.8871845-.76-1 0 0-4.62-1.14-4.85-1.22-1.406253-.4890041-2.359678-1.8014594-2.39-3.29v-7.36c.7002072 2.410051 2.374928 4.418266 4.62 5.54 6.5 3.24 6.45 3.33 7.38 3.33.9998598.0105307 1.935581-.4912875 2.48-1.33.3384926.5504991.5184361 1.1837616.52 1.83z"/><path id="Shape" d="m31.05 28.59h-.05c-.051823-.4116126-.191658-.8072433-.41-1.16-.2935208-.4804109-.7162991-.8685352-1.22-1.12l-6-3c-.8568552-.426616-1.4586988-1.2365044-1.62-2.18l.13.06c2.6320709 1.0700351 5.5779291 1.0700351 8.21 0 2.03 4.65.69 5.81.96 7.4z"/><path id="Shape" d="m38 30.5v10.06c-.0106632.4997275-.1301009.9911284-.35 1.44-.7090016 1.464131-2.3333219 2.2467437-3.9202175 1.8887974-1.5868955-.3579464-2.7179657-1.7620757-2.7297825-3.3887974v-8c-.0015639-.6462384-.1815074-1.2795009-.52-1.83.430173-.5988084.616111-1.338985.52-2.07h.08c.0441925.2523983.1215279.4978542.23.73.95 2.09 4.83 2.75 5.81-1.15.5684332.6389356.8816954 1.4648088.88 2.32z"/></g><path id="Shape" d="m37.11 28.17c-.2023482 1.1867259-.9987595 2.1869581-2.11 2.65v9.74c-.0106632.4997275-.1301009.9911284-.35 1.44-.3496509.7192952-.9307048 1.3003491-1.65 1.65.4662762.2308995.9796852.3506949 1.5.35 1.3460365-.0095387 2.5687762-.7858813 3.15-2 .2198991-.4488716.3393368-.9402725.35-1.44v-10.06c.001411-.8599544-.3156362-1.6899768-.89-2.33z" fill="#cfd8dc"/><path id="Shape" d="m18.39 33.82c-.439879.243808-.8580732.5248345-1.25.84l-2.54-1c-.9921172-.393589-1.7004059-1.2846619-1.86-2.34l-2.35-15.71c-.2240566-1.48989.6916827-2.9148488 2.14-3.33l2.47-.71c.0860428 1.7088766.5724498 3.3736215 1.42 4.86-.39.65-.38.93-.67 2.71-.227647 1.3335236-.1489965 2.7013584.23 4v7.36c.0208225 1.5048247.9856673 2.8339884 2.41 3.32z" fill="#cfd8dc"/><path id="Shape" d="m37.67 47.9c0 .25-8.87 1.47-17 1-2.7924188-.1088915-5.5714675-.4433137-8.31-1-1.1381708-4.9780351.7434765-10.1613671 4.81-13.25.3919268-.3151655.810121-.596192 1.25-.84.23.08 4.83 1.22 4.85 1.22.4342125.1217471.7332165.5190537.73.97v6.5c-.0028345 1.0571589.4736657 2.0586248 1.2957472 2.7232864.8220814.6646616 1.9011285.9208722 2.9342528.6967136 1.6382782-.3726814 2.7929769-1.8400241 2.77-3.52v-1.9c.0118168 1.6267217 1.142887 3.030851 2.7297825 3.3887974 1.5868956.3579463 3.2112159-.4246664 3.9202175-1.8887974.4587614 1.939142.4656042 3.9577924.02 5.9z" fill="#ff9801"/></g><g id="Stroke" fill="#000"><path id="Shape" d="m3 21c-.55228475 0-1 .4477153-1 1v1h-1c-.55228475 0-1 .4477153-1 1s.44771525 1 1 1h1v1c0 .5522847.44771525 1 1 1s1-.4477153 1-1v-1h1c.55228475 0 1-.4477153 1-1s-.44771525-1-1-1h-1v-1c0-.5522847-.44771525-1-1-1z"/><path id="Shape" d="m52 5h-1v-1c0-.55228475-.4477153-1-1-1s-1 .44771525-1 1v1h-1c-.5522847 0-1 .44771525-1 1s.4477153 1 1 1h1v1c0 .55228475.4477153 1 1 1s1-.44771525 1-1v-1h1c.5522847 0 1-.44771525 1-1s-.4477153-1-1-1z"/><path id="Shape" d="m40 37.33v-5.83c-.0115479-.8959762-.2939192-1.7674925-.81-2.5.51-2.88-.47-8.11-2.21-10.29 2.8234125-4.2590041 2.640065-9.83880705-.4568498-13.9032742-3.0969147-4.06446715-8.4280083-5.72195263-13.2835616-4.12998007-4.8555532 1.59197256-8.1703751 6.08416287-8.2595886 11.19325427l-1.75.5c-1.9337648.5508253-3.1580957 2.4515348-2.86 4.44l2.35 15.69c.2127922 1.4071175 1.1571771 2.5952146 2.48 3.12l1 .41c-.25.24-.48.48-.7.72-9.98 1.36-15.5 4.66-15.5 9.25s5.53 7.89 15.56 9.3c2.64591 2.9903684 6.4471134 4.7025761 10.44 4.7025761s7.79409-1.7122077 10.44-4.7025761c10.03-1.41 15.56-4.7 15.56-9.3 0-4-4.15-7-12-8.67zm-27.91 10.28c-3.8-.91-5.09-2-5.09-2.4s1.37-1.56 5.4-2.49c-.3963475 1.5981274-.50136 3.2546151-.31 4.89zm2.11.45c-.8520604-4.7613536 1.257679-9.5655541 5.34-12.16l4.46 1.1v6.5c-.000003 1.1952088.4754753 2.3413195 1.3215531 3.1855213.8460777.8442017 1.993241 1.3171347 3.1884469 1.3144787 1.8988806-.0018147 3.5883939-1.2057434 4.21-3 1.5042537 1.2197435 3.6264554 1.3209936 5.24.25.0841676.936131.0302579 1.8795504-.16 2.8-7.8160865 1.2582456-15.78285 1.2616213-23.6.01zm16.27-24.57c.4461793 1.0074481.700529 2.0892819.75 3.19-.33-.22 0 0-5.39-2.74 1.5612084.1573796 3.1381281.0044456 4.64-.45zm-8.61-.67c.3208493 1.026799 1.0417626 1.8810812 2 2.37l6 3c.4754146.2379865.8365087.6554695 1.0035064 1.1602154.1669977.5047458.1261544 1.0552119-.1135064 1.5297846-.4953708.9786313-1.6865246 1.3756826-2.67.89l-6-3c-3.1436815-1.5727892-4.8923956-5.0134145-4.31-8.48l.09-.57c1.0936759 1.3102197 2.4583351 2.3678306 4 3.1zm-3.86 5.26c1.73 2 3.1 2.45 9.21 5.49 1.1990835.6135803 2.6285218.5720926 3.79-.11v9.94c.0276142 1.3807119-1.0692881 2.5223858-2.45 2.55s-2.5223858-1.0692881-2.55-2.45v-6.5c-.0007104-.9191073-.6277552-1.7194145-1.52-1.94l-4.61-1.15c-1.0915773-.3018904-1.8532388-1.2875699-1.87-2.42zm21.68 15 .12-.33c4.21 1 5.2 2.12 5.2 2.45s-1.27 1.48-5.09 2.4c.173335-1.5057061.0956127-3.0297391-.23-4.51zm-1.68-1.53c0 1.3807119-1.1192881 2.5-2.5 2.5s-2.5-1.1192881-2.5-2.5c0-8.92 0-8.37-.15-9.14 1.6763058 1.0441026 3.863733.7085556 5.15-.79zm-1.94-10.87c-.4766303.3074999-1.0614123.3981533-1.6087724.2493934-.5473602-.1487599-1.0058111-.52294-1.2612276-1.0293934-.67-1.45 1-2.57-.86-7.15 1.2504034-.6203005 2.3838424-1.4526169 3.35-2.46 1.32 2.13 2.73 8.88.38 10.39zm-.2-23.3c1.4157154 2.6741602 1.5335465 5.8482338.32 8.62-.1046183.2294233-.2214524.4530771-.35.67-3.84 2.23-9.3 1.64-12.14-1.06-1.0683359-.8775588-1.6875096-2.1874476-1.6875096-3.57s.6191737-2.69244121 1.6875096-3.57c3-2.87 8.52-3.24 12.17-1.09zm-16.75-1.53c1.6641584-2.13153275 4.1206444-3.49820873 6.8092624-3.78836092s5.3801279.52095872 7.4607376 2.24836092c-3.86-.84-8.27 0-11.07 2.66-6.31 5.93.99 14.89 11.05 12.72-3.9335696 3.2046007-9.643593 2.9555574-13.2832184-.5793489-3.6396253-3.5349063-4.0552133-9.23522876-.9667816-13.2606511zm-4.38 26.3-2.35-15.69c-.150024-.9913198.4571295-1.9405317 1.42-2.22l1.35-.38c.2026863 1.2529939.5973207 2.4672538 1.17 3.6-.289632.8195978-.4711621 1.6734618-.54 2.54-.2344753 1.4125944-.1594125 2.8592583.22 4.24v7.25c.0044559.9156811.2869222 1.8084141.81 2.56l-.81-.34c-.6730653-.2537795-1.1580041-.8494524-1.27-1.56zm4.2 23.53c4.7037486.4250927 9.4362514.4250927 14.14 0-4.2065788 3.0909566-9.9334212 3.0909566-14.14 0zm16.88-2.31c-6.5163741.8400081-13.1136259.8400081-19.63 0-8.88-1.19-14.18-3.95-14.18-7.37 0-3.11 4.4-5.67 11.88-7-.2798546.4913808-.530295.9989401-.75 1.52-5.39 1.06-8.13 2.64-8.13 4.69 0 3 6 4.3 8.93 4.83 7.9957669 1.2799584 16.1442331 1.2799584 24.14 0 3-.52 8.93-1.83 8.93-4.83 0-1.89-2.36-3.39-7-4.45v-1.39c6.37 1.41 10 3.8 10 6.63 0 3.42-5.3 6.18-14.19 7.37z"/><path id="Shape" d="m29 8c0 .55228475.4477153 1 1 1 .16 0 4 0 4 3 0 .5522847.4477153 1 1 1s1-.4477153 1-1c0-4-3.92-5-6-5-.5522847 0-1 .44771525-1 1z"/><path id="Shape" d="m46 30c-.5522847 0-1 .4477153-1 1v1h-1c-.5522847 0-1 .4477153-1 1s.4477153 1 1 1h1v1c0 .5522847.4477153 1 1 1s1-.4477153 1-1v-1h1c.5522847 0 1-.4477153 1-1s-.4477153-1-1-1h-1v-1c0-.5522847-.4477153-1-1-1z"/></g></g></svg>